<svg shape-rendering="geometricPrecision" xmlns="http://www.w3.org/2000/svg" viewBox="0 0 30 30">
  <path d="M28.3 6.8c0 .1 0 .2-.1.3-.1.1-.1.1-.2.1-.6.1-1.1.2-1.4.6-.4.3-.8.9-1.2 1.8l-6 13.6c0 .1-.1.2-.3.2-.1 0-.3-.1-.3-.2l-3.4-7.1-3.9 7.1c-.1.1-.2.2-.3.2-.2 0-.3-.1-.3-.2L4.8 9.6c-.3-.8-.7-1.4-1.1-1.8-.4-.3-1-.5-1.7-.6-.1 0-.1 0-.2-.1-.1 0-.1-.1-.1-.2 0-.2.1-.3.2-.3.5 0 1.1 0 1.7.1.5 0 1 .1 1.5.1s1.1 0 1.7-.1c.7 0 1.3-.1 1.8-.1.1 0 .2.1.2.3 0 .2 0 .3-.1.3-.5 0-.9.2-1.3.4-.3.3-.5.6-.5.9 0 .2.1.5.2.7L12 20.3l2.8-5.3-2.6-5.4c-.5-1-.9-1.6-1.2-1.9-.3-.3-.8-.5-1.4-.5-.1 0-.1 0-.2-.1.1 0 .1-.1.1-.2 0-.2.1-.3.2-.3.5 0 1 0 1.5.1.4 0 .9.1 1.4.1.5 0 1 0 1.5-.1.5 0 1.1-.1 1.6-.1.1 0 .2.1.2.3 0 .2 0 .3-.1.3-1.1.1-1.6.4-1.6.9 0 .2.1.6.4 1.1l1.7 3.5L18 9.5c.2-.4.4-.8.4-1.1 0-.7-.5-1.1-1.6-1.2-.1 0-.1-.1-.1-.3 0-.1 0-.2.1-.2 0-.1.1-.1.1-.1.4 0 .8 0 1.4.1.5 0 1 .1 1.3.1.2 0 .6 0 1.1-.1.6-.1 1.1-.1 1.5-.1.1 0 .1.1.1.3 0 .3-.1.4-.3.4-.6.1-1.1.2-1.5.5-.5.2-1 .8-1.5 1.8l-2.3 4.2 3.1 6.3 4.6-10.6c.2-.4.2-.7.2-1.1 0-.8-.5-1.2-1.6-1.2-.1 0-.1-.1-.1-.3 0-.2.1-.3.2-.3.4 0 .8 0 1.4.1.5 0 .9.1 1.2.1.3 0 .8 0 1.2-.1.5 0 .9-.1 1.3-.1.1 0 .1.1.1.2z" fill-rule="evenodd" clip-rule="evenodd"/>
</svg>
